<mxfile host="Electron" modified="2024-07-19T20:01:52.361Z" agent="Mozilla/5.0 (Macintosh; Intel Mac OS X 10_15_7) AppleWebKit/537.36 (KHTML, like Gecko) draw.io/24.6.4 Chrome/124.0.6367.207 Electron/30.0.6 Safari/537.36" etag="RthwTN44dnGiz3bRscwU" version="24.6.4" type="device">
  <diagram name="Page-1" id="YLs3xFRdq1so1nArV5jV">
    <mxGraphModel dx="1434" dy="907" grid="1" gridSize="10" guides="1" tooltips="1" connect="1" arrows="1" fold="1" page="1" pageScale="1" pageWidth="850" pageHeight="1100" math="0" shadow="0">
      <root>
        <mxCell id="0" />
        <mxCell id="1" parent="0" />
        <mxCell id="UEdQb0qp3nn8GaqOhN-j-3" style="edgeStyle=orthogonalEdgeStyle;rounded=0;orthogonalLoop=1;jettySize=auto;html=1;" edge="1" parent="1" source="UEdQb0qp3nn8GaqOhN-j-1">
          <mxGeometry relative="1" as="geometry">
            <mxPoint x="350" y="279" as="targetPoint" />
          </mxGeometry>
        </mxCell>
        <mxCell id="UEdQb0qp3nn8GaqOhN-j-1" value="&lt;b&gt;CloudWatch Event&lt;/b&gt;" style="sketch=0;outlineConnect=0;fontColor=#232F3E;gradientColor=none;fillColor=#E7157B;strokeColor=none;dashed=0;verticalLabelPosition=bottom;verticalAlign=top;align=center;html=1;fontSize=12;fontStyle=0;aspect=fixed;pointerEvents=1;shape=mxgraph.aws4.event_time_based;" vertex="1" parent="1">
          <mxGeometry x="190" y="240" width="78" height="78" as="geometry" />
        </mxCell>
        <mxCell id="UEdQb0qp3nn8GaqOhN-j-4" style="edgeStyle=orthogonalEdgeStyle;rounded=0;orthogonalLoop=1;jettySize=auto;html=1;" edge="1" parent="1" source="UEdQb0qp3nn8GaqOhN-j-2">
          <mxGeometry relative="1" as="geometry">
            <mxPoint x="490" y="282" as="targetPoint" />
          </mxGeometry>
        </mxCell>
        <mxCell id="UEdQb0qp3nn8GaqOhN-j-2" value="&lt;b&gt;Check Stock&amp;nbsp;&lt;/b&gt;&lt;div&gt;&lt;b&gt;Price Lambda&lt;/b&gt;&lt;/div&gt;" style="outlineConnect=0;dashed=0;verticalLabelPosition=bottom;verticalAlign=top;align=center;html=1;shape=mxgraph.aws3.lambda_function;fillColor=#F58534;gradientColor=none;" vertex="1" parent="1">
          <mxGeometry x="356" y="246" width="69" height="72" as="geometry" />
        </mxCell>
        <mxCell id="UEdQb0qp3nn8GaqOhN-j-6" value="&lt;b&gt;Email Notification&amp;nbsp;&lt;/b&gt;&lt;div&gt;&lt;b&gt;SNS Topic&lt;/b&gt;&lt;/div&gt;" style="sketch=0;points=[[0,0,0],[0.25,0,0],[0.5,0,0],[0.75,0,0],[1,0,0],[0,1,0],[0.25,1,0],[0.5,1,0],[0.75,1,0],[1,1,0],[0,0.25,0],[0,0.5,0],[0,0.75,0],[1,0.25,0],[1,0.5,0],[1,0.75,0]];outlineConnect=0;fontColor=#232F3E;fillColor=#E7157B;strokeColor=#ffffff;dashed=0;verticalLabelPosition=bottom;verticalAlign=top;align=center;html=1;fontSize=12;fontStyle=0;aspect=fixed;shape=mxgraph.aws4.resourceIcon;resIcon=mxgraph.aws4.sns;" vertex="1" parent="1">
          <mxGeometry x="490" y="243" width="78" height="78" as="geometry" />
        </mxCell>
      </root>
    </mxGraphModel>
  </diagram>
</mxfile>
